<mxfile host="Electron" modified="2023-05-05T19:30:49.259Z" agent="Mozilla/5.0 (Windows NT 10.0; Win64; x64) AppleWebKit/537.36 (KHTML, like Gecko) draw.io/21.2.1 Chrome/112.0.5615.87 Electron/24.1.2 Safari/537.36" etag="Y-T3ApE38dIIpRwESPnv" version="21.2.1" type="device">
  <diagram name="Page-1" id="cHk4ZF7iXP-Oi1yKTADg">
    <mxGraphModel dx="580" dy="591" grid="1" gridSize="10" guides="1" tooltips="1" connect="1" arrows="1" fold="1" page="1" pageScale="1" pageWidth="850" pageHeight="1100" math="0" shadow="0">
      <root>
        <mxCell id="0" />
        <mxCell id="1" parent="0" />
        <mxCell id="-Z0gxPZoHlL4O8jTvGws-5" value="" style="whiteSpace=wrap;html=1;aspect=fixed;fillColor=#647687;fontColor=#ffffff;strokeColor=#314354;" vertex="1" parent="1">
          <mxGeometry x="240" y="360" width="120" height="120" as="geometry" />
        </mxCell>
        <mxCell id="-Z0gxPZoHlL4O8jTvGws-1" value="&lt;h1&gt;CCW&lt;/h1&gt;" style="ellipse;whiteSpace=wrap;html=1;aspect=fixed;fillColor=#76608a;fontColor=#ffffff;strokeColor=#432D57;" vertex="1" parent="1">
          <mxGeometry x="160" y="280" width="120" height="120" as="geometry" />
        </mxCell>
        <mxCell id="-Z0gxPZoHlL4O8jTvGws-2" value="&lt;h1&gt;CW&lt;/h1&gt;" style="ellipse;whiteSpace=wrap;html=1;aspect=fixed;fillColor=#f0a30a;fontColor=#000000;strokeColor=#BD7000;" vertex="1" parent="1">
          <mxGeometry x="320" y="280" width="120" height="120" as="geometry" />
        </mxCell>
        <mxCell id="-Z0gxPZoHlL4O8jTvGws-3" value="&lt;h1&gt;CCW&lt;/h1&gt;" style="ellipse;whiteSpace=wrap;html=1;aspect=fixed;fillColor=#76608a;fontColor=#ffffff;strokeColor=#432D57;" vertex="1" parent="1">
          <mxGeometry x="320" y="440" width="120" height="120" as="geometry" />
        </mxCell>
        <mxCell id="-Z0gxPZoHlL4O8jTvGws-4" value="&lt;h1 style=&quot;text-align: justify;&quot;&gt;CW&lt;/h1&gt;" style="ellipse;whiteSpace=wrap;html=1;aspect=fixed;fillColor=#f0a30a;fontColor=#000000;strokeColor=#BD7000;" vertex="1" parent="1">
          <mxGeometry x="160" y="440" width="120" height="120" as="geometry" />
        </mxCell>
        <mxCell id="-Z0gxPZoHlL4O8jTvGws-6" value="" style="endArrow=classic;html=1;rounded=0;entryX=0;entryY=0;entryDx=0;entryDy=0;" edge="1" parent="1" source="-Z0gxPZoHlL4O8jTvGws-11" target="-Z0gxPZoHlL4O8jTvGws-3">
          <mxGeometry width="50" height="50" relative="1" as="geometry">
            <mxPoint x="300" y="419.5" as="sourcePoint" />
            <mxPoint x="340" y="420" as="targetPoint" />
            <Array as="points" />
          </mxGeometry>
        </mxCell>
        <mxCell id="-Z0gxPZoHlL4O8jTvGws-8" value="" style="endArrow=classic;html=1;rounded=0;entryX=0;entryY=1;entryDx=0;entryDy=0;" edge="1" parent="1" target="-Z0gxPZoHlL4O8jTvGws-2">
          <mxGeometry width="50" height="50" relative="1" as="geometry">
            <mxPoint x="300" y="420" as="sourcePoint" />
            <mxPoint x="330" y="390" as="targetPoint" />
          </mxGeometry>
        </mxCell>
        <mxCell id="-Z0gxPZoHlL4O8jTvGws-9" value="&lt;p&gt;&lt;br&gt;&lt;/p&gt;" style="edgeLabel;html=1;align=center;verticalAlign=middle;resizable=0;points=[];" vertex="1" connectable="0" parent="-Z0gxPZoHlL4O8jTvGws-8">
          <mxGeometry x="0.3307" relative="1" as="geometry">
            <mxPoint as="offset" />
          </mxGeometry>
        </mxCell>
        <mxCell id="-Z0gxPZoHlL4O8jTvGws-10" value="&lt;font style=&quot;background-color: rgb(100, 118, 135);&quot; color=&quot;#ffffff&quot;&gt;Y&lt;/font&gt;" style="edgeLabel;html=1;align=center;verticalAlign=middle;resizable=0;points=[];" vertex="1" connectable="0" parent="-Z0gxPZoHlL4O8jTvGws-8">
          <mxGeometry x="0.2775" relative="1" as="geometry">
            <mxPoint as="offset" />
          </mxGeometry>
        </mxCell>
        <mxCell id="-Z0gxPZoHlL4O8jTvGws-12" value="" style="endArrow=classic;html=1;rounded=0;entryX=0;entryY=0;entryDx=0;entryDy=0;" edge="1" parent="1" target="-Z0gxPZoHlL4O8jTvGws-11">
          <mxGeometry width="50" height="50" relative="1" as="geometry">
            <mxPoint x="300" y="419.5" as="sourcePoint" />
            <mxPoint x="338" y="458" as="targetPoint" />
            <Array as="points" />
          </mxGeometry>
        </mxCell>
        <mxCell id="-Z0gxPZoHlL4O8jTvGws-13" value="&lt;span style=&quot;background-color: rgb(100, 118, 135);&quot;&gt;&lt;font color=&quot;#ffffff&quot;&gt;X&lt;br&gt;&lt;/font&gt;&lt;/span&gt;" style="edgeLabel;html=1;align=center;verticalAlign=middle;resizable=0;points=[];" vertex="1" connectable="0" parent="-Z0gxPZoHlL4O8jTvGws-12">
          <mxGeometry x="-0.0668" relative="1" as="geometry">
            <mxPoint x="19" y="22" as="offset" />
          </mxGeometry>
        </mxCell>
        <mxCell id="-Z0gxPZoHlL4O8jTvGws-11" value="&lt;font color=&quot;#ffffff&quot;&gt;Z&lt;/font&gt;" style="ellipse;whiteSpace=wrap;html=1;aspect=fixed;fillColor=#330000;" vertex="1" parent="1">
          <mxGeometry x="295" y="415" width="10" height="10" as="geometry" />
        </mxCell>
        <mxCell id="-Z0gxPZoHlL4O8jTvGws-15" value="" style="shape=flexArrow;endArrow=classic;html=1;rounded=0;fillColor=#e51400;strokeColor=#B20000;" edge="1" parent="1">
          <mxGeometry width="50" height="50" relative="1" as="geometry">
            <mxPoint x="480" y="420" as="sourcePoint" />
            <mxPoint x="390" y="419.75" as="targetPoint" />
          </mxGeometry>
        </mxCell>
        <mxCell id="-Z0gxPZoHlL4O8jTvGws-16" value="" style="shape=flexArrow;endArrow=classic;html=1;rounded=0;fillColor=#e51400;strokeColor=#B20000;" edge="1" parent="1">
          <mxGeometry width="50" height="50" relative="1" as="geometry">
            <mxPoint x="300" y="510" as="sourcePoint" />
            <mxPoint x="300" y="600" as="targetPoint" />
          </mxGeometry>
        </mxCell>
        <mxCell id="-Z0gxPZoHlL4O8jTvGws-17" value="" style="shape=flexArrow;endArrow=classic;html=1;rounded=0;fillColor=#e51400;strokeColor=#B20000;" edge="1" parent="1">
          <mxGeometry width="50" height="50" relative="1" as="geometry">
            <mxPoint x="299.75" y="330" as="sourcePoint" />
            <mxPoint x="300" y="240" as="targetPoint" />
          </mxGeometry>
        </mxCell>
        <mxCell id="-Z0gxPZoHlL4O8jTvGws-19" value="" style="shape=flexArrow;endArrow=classic;html=1;rounded=0;fillColor=#e51400;strokeColor=#B20000;" edge="1" parent="1">
          <mxGeometry width="50" height="50" relative="1" as="geometry">
            <mxPoint x="120" y="420" as="sourcePoint" />
            <mxPoint x="210" y="419.75" as="targetPoint" />
          </mxGeometry>
        </mxCell>
      </root>
    </mxGraphModel>
  </diagram>
</mxfile>
